<?xml version="1.0" standalone="no"?>
<!DOCTYPE svg PUBLIC "-//W3C//DTD SVG 20010904//EN"
 "http://www.w3.org/TR/2001/REC-SVG-20010904/DTD/svg10.dtd">
<svg version="1.0" xmlns="http://www.w3.org/2000/svg"
 width="998.000000pt" height="998.000000pt" viewBox="0 0 998.000000 998.000000"
 preserveAspectRatio="xMidYMid meet">
<metadata>
Created by potrace 1.11, written by Peter Selinger 2001-2013
</metadata>
<g transform="translate(0.000000,998.000000) scale(0.100000,-0.100000)"
fill="#000000" stroke="none">
<path d="M123 9790 c54 -156 164 -458 286 -790 48 -129 234 -610 262 -675 4
-11 31 -78 59 -150 29 -71 58 -143 66 -160 7 -16 58 -140 113 -275 86 -214
267 -647 306 -735 7 -16 77 -178 156 -360 273 -634 669 -1513 932 -2065 27
-58 64 -136 82 -175 37 -79 109 -230 215 -450 40 -82 97 -202 127 -265 73
-152 602 -1211 685 -1370 36 -69 105 -201 153 -295 48 -93 104 -199 123 -235
41 -77 88 -164 167 -315 32 -60 61 -114 65 -120 4 -5 29 -50 55 -100 194 -363
675 -1205 712 -1245 9 -9 13 -10 13 -2 0 23 -344 979 -395 1097 -7 17 -39 98
-70 180 -31 83 -63 164 -70 180 -55 129 -197 497 -193 500 3 3 1346 5 2985 5
l2980 0 1 1083 0 1084 -1189 -1 -1189 -1 -2 1915 -3 1915 -1134 0 c-998 0
-1135 -2 -1142 -15 -13 -27 -105 -249 -399 -965 -110 -269 -205 -499 -210
-510 -28 -60 -300 -727 -300 -735 0 -38 -32 30 -150 318 -73 180 -141 345
-151 367 -10 22 -63 150 -117 285 -182 446 -493 1205 -505 1230 l-12 25 -1124
0 -1125 0 -106 200 c-148 279 -258 486 -310 580 -15 28 -40 73 -55 100 -88
160 -240 431 -318 565 -49 85 -101 175 -115 200 -44 79 -204 345 -214 355 -5
6 20 -73 55 -175z m1787 -2409 c13 -1 15 -31 15 -211 0 -116 -2 -210 -5 -210
-3 0 -27 53 -54 118 -49 116 -64 152 -105 246 -11 27 -21 50 -21 52 0 1 15 4
33 6 28 3 49 2 137 -1z m349 -7 c7 -7 8 -1214 1 -1214 -3 0 -40 84 -84 186
l-78 186 0 420 c-1 279 3 422 10 427 12 7 143 4 151 -5z m339 1 c4 -4 7 -461
7 -1015 0 -555 -3 -1006 -6 -1002 -3 4 -41 90 -84 192 l-78 185 1 805 c0 443
1 814 1 825 1 18 7 20 77 19 41 -1 78 -5 82 -9z m340 0 c4 -4 7 -641 7 -1415
0 -775 -2 -1406 -6 -1402 -3 4 -40 90 -84 192 l-78 185 1 1205 c0 663 1 1213
1 1222 1 9 11 18 24 20 35 5 128 0 135 -7z m3059 1 c8 -7 8 -4854 0 -4862 -4
-5 -89 -7 -147 -5 -13 1 -15 277 -14 2429 1 1335 2 2432 3 2437 1 11 147 12
158 1z m326 5 c16 -1 17 -124 17 -2436 l0 -2435 -84 0 -84 0 0 2434 0 2435 42
3 c22 2 52 2 66 1 14 -1 33 -2 43 -2z m345 0 c9 -1 12 -495 12 -2436 l0 -2435
-45 -1 c-25 0 -62 -1 -82 -1 l-38 -1 -2 2419 c-1 1330 0 2428 2 2439 4 18 11
20 72 18 37 0 74 -2 81 -2z m287 0 c20 -1 20 -8 20 -1913 l0 -1913 23 -3 22
-3 0 -519 0 -518 -47 -4 c-27 -1 -64 -2 -84 0 l-37 3 2 2432 1 2431 25 6 c14
4 32 6 40 4 8 -1 24 -3 35 -3z m-1289 -543 c1 -266 5 -942 8 -1504 l6 -1021
-21 -49 c-11 -27 -30 -69 -40 -93 -11 -24 -29 -64 -39 -90 -10 -25 -30 -72
-44 -103 -14 -31 -26 -61 -26 -67 0 -5 -3 -12 -8 -14 -4 -3 -7 680 -7 1518 l0
1522 79 196 c44 108 82 194 84 192 3 -2 6 -222 8 -487z m-2443 107 c111 -275
227 -556 323 -785 l77 -185 1 -1502 c1 -827 -2 -1503 -5 -1503 -3 0 -41 82
-84 183 l-78 182 0 1500 1 1500 -65 160 c-88 219 -95 235 -102 235 -3 0 -6
-668 -6 -1485 0 -817 -2 -1485 -6 -1485 -7 0 -112 238 -140 320 l-22 64 1
1511 c0 830 1 1515 2 1520 1 17 16 -15 103 -230z m2101 -1958 l-1 -1512 -78
-182 c-43 -101 -80 -183 -84 -183 -3 0 -6 676 -6 1503 l0 1502 79 193 c44 105
82 192 85 192 3 0 5 -681 5 -1513z m-340 -810 l-2 -1503 -23 -54 c-12 -30 -24
-57 -25 -59 -8 -9 -105 -7 -112 3 -5 6 -8 623 -7 1371 1 1187 3 1364 16 1395
9 19 44 106 80 192 35 87 66 158 69 158 3 0 4 -676 4 -1503z m-1099 1155 l78
-192 -1 -1268 c0 -697 -1 -1278 -1 -1292 -1 -25 -3 -25 -75 -25 -41 0 -78 3
-82 7 -4 4 -7 676 -8 1492 0 817 2 1482 5 1478 3 -4 41 -94 84 -200z m757
-1624 c0 -623 -1 -1138 -1 -1143 -1 -8 -132 -13 -161 -6 -3 0 -5 432 -4 959
l1 957 27 65 c15 36 34 79 41 95 7 17 30 72 50 123 21 51 40 90 43 87 3 -2 5
-514 4 -1137z m-473 930 c12 -26 21 -50 21 -53 0 -3 9 -24 19 -48 10 -23 36
-83 56 -134 l38 -92 -1 -848 c0 -466 -1 -862 -1 -878 l-1 -31 -82 1 -83 1 -1
199 c-2 190 -12 1110 -18 1725 -4 318 -10 301 53 158z m4888 -1608 l1 -518
-68 -4 c-37 -2 -75 -2 -84 0 -14 3 -16 53 -16 522 l0 519 43 3 c23 2 60 1 83
0 l41 -4 0 -518z m289 517 c10 -10 6 -1030 -5 -1036 -5 -3 -32 -4 -60 -3 l-51
4 0 518 c0 349 3 519 10 522 16 5 100 2 106 -5z m-1986 -516 l0 -520 -37 -3
c-21 -2 -59 -1 -84 0 l-47 4 0 519 -1 519 85 0 84 0 0 -519z m340 -1 l0 -520
-75 0 c-41 0 -78 -1 -82 -2 -5 -2 -9 232 -9 520 l-2 522 84 0 84 0 0 -520z
m340 0 l0 -520 -35 -1 c-19 0 -56 -1 -82 -1 l-48 -1 -1 522 -1 521 83 0 84 0
0 -520z m340 1 l0 -519 -69 -4 c-38 -2 -76 -2 -84 0 -13 3 -15 66 -15 523 l0
519 84 0 84 0 0 -519z m337 0 l0 -520 -36 -3 c-20 -2 -57 -1 -83 0 l-48 4 0
519 0 519 83 0 84 0 0 -519z"/>
</g>
</svg>
